<?xml version="1.0" encoding="iso-8859-1"?>
<!-- Generator: Adobe Illustrator 17.1.0, SVG Export Plug-In . SVG Version: 6.00 Build 0)  -->
<!DOCTYPE svg PUBLIC "-//W3C//DTD SVG 1.1//EN" "http://www.w3.org/Graphics/SVG/1.1/DTD/svg11.dtd">
<svg version="1.1" id="Capa_1" xmlns="http://www.w3.org/2000/svg" xmlns:xlink="http://www.w3.org/1999/xlink" x="0px" y="0px"
	 viewBox="0 0 475.8 475.8" style="enable-background:new 0 0 475.8 475.8;" xml:space="preserve">
<path d="M255.472,58.915c-16.308,16.474-27.683,37.739-32.896,61.498c-0.769,3.504-3.873,5.894-7.318,5.894
	c-0.533,0-1.073-0.057-1.615-0.176c-4.046-0.888-6.606-4.887-5.718-8.933c5.823-26.538,18.579-50.34,36.888-68.836
	c2.915-2.944,7.664-2.967,10.606-0.054C258.362,51.223,258.386,55.971,255.472,58.915z M212.861,131.51
	c-4.138-0.314-7.737,2.769-8.057,6.898c-0.319,4.123-0.481,8.338-0.481,12.53c0,4.142,3.358,7.5,7.5,7.5s7.5-3.358,7.5-7.5
	c0-3.806,0.147-7.632,0.437-11.371C220.079,135.437,216.991,131.829,212.861,131.51z M281.208,464.324
	c-7.021,7.4-16.505,11.476-26.706,11.476c-10.201,0-19.686-4.076-26.706-11.476c-7.021-7.4-10.592-17.085-10.056-27.272
	l7.009-148.56c0.152-3.216,2.315-5.876,5.238-6.797c-2.392-6.01-7.702-10.632-14.357-11.915l-25.068-4.83
	c-3.53-0.681-6.081-3.77-6.081-7.365V145.531c0-29.036,7.562-57.738,21.867-83.005c14.306-25.267,35.028-46.518,59.926-61.457
	c2.317-1.39,5.203-1.426,7.554-0.095c2.351,1.331,3.805,3.824,3.805,6.526v273.901c3.602,0.417,6.448,3.385,6.623,7.091l7.011,148.6
	C291.8,447.239,288.229,456.924,281.208,464.324z M245.545,281.346h17.088V21.463c-39.256,28.658-63.152,75.037-63.152,124.068
	v105.862l18.987,3.659C232.118,257.682,242.607,268.22,245.545,281.346z M276.285,437.84l-6.675-141.494h-30.214L232.722,437.8
	c-0.32,6.077,1.796,11.815,5.957,16.2s9.78,6.8,15.824,6.8c6.044,0,11.664-2.415,15.824-6.799
	C274.486,449.615,276.603,443.876,276.285,437.84z"/>
<g>
</g>
<g>
</g>
<g>
</g>
<g>
</g>
<g>
</g>
<g>
</g>
<g>
</g>
<g>
</g>
<g>
</g>
<g>
</g>
<g>
</g>
<g>
</g>
<g>
</g>
<g>
</g>
<g>
</g>
</svg>
