<svg width="179" height="58" viewBox="0 0 179 58" fill="none" xmlns="http://www.w3.org/2000/svg">
<path d="M29.3919 21C29.0561 21 28.7838 21.184 28.7838 21.411V27.1096C28.7838 27.3664 28.4746 27.5753 28.0946 27.5753C27.7146 27.5753 27.4054 27.3664 27.4054 27.1096V21.411C27.4054 21.184 27.1331 21 26.7973 21C26.4615 21 26.1892 21.184 26.1892 21.411V27.1096C26.1892 27.3664 25.88 27.5753 25.5 27.5753C25.12 27.5753 24.8108 27.3664 24.8108 27.1096V21.411C24.8108 21.184 24.5385 21 24.2027 21C23.8669 21 23.5946 21.184 23.5946 21.411V27.1096C23.5946 27.3664 23.2854 27.5753 22.9054 27.5753C22.5254 27.5753 22.2162 27.3664 22.2162 27.1096V21.411C22.2162 21.184 21.9439 21 21.6081 21C21.2723 21 21 21.184 21 21.411V29.0266C21 29.8881 22.0372 30.589 23.3147 30.589C23.5041 30.589 23.6807 30.6399 23.8119 30.7322C23.9431 30.8245 24.0111 30.9459 24.0033 31.0738L23.0258 47.2583C22.9981 47.7179 23.2423 48.1536 23.7136 48.4855C24.1849 48.8173 24.8194 49 25.5 49C26.1806 49 26.815 48.8173 27.2863 48.4855C27.7576 48.1537 28.0018 47.7179 27.9741 47.2584L26.9966 31.0738C26.9889 30.9459 27.0569 30.8246 27.188 30.7323C27.3192 30.6399 27.4957 30.5891 27.6879 30.5891C28.9628 30.589 30 29.8881 30 29.0266V21.411C30 21.184 29.7277 21 29.3919 21ZM26.409 47.9163C26.1692 48.0851 25.8464 48.1781 25.5 48.1781C25.1537 48.1781 24.8309 48.0851 24.5911 47.9163C24.3512 47.7475 24.2269 47.5257 24.2411 47.2918L24.8792 36.726H26.1208L26.7589 47.2919C26.7731 47.5257 26.6488 47.7475 26.409 47.9163ZM27.6853 29.7671C27.1616 29.7671 26.6735 29.9077 26.3107 30.163C25.9481 30.4183 25.7601 30.7536 25.7814 31.1073L26.0712 35.9041H24.9289L25.2186 31.1073C25.2399 30.7536 25.0519 30.4183 24.6893 30.163C24.3266 29.9077 23.8384 29.7671 23.312 29.7671C22.7078 29.7671 22.2162 29.4349 22.2162 29.0266V28.3097C22.4301 28.366 22.6624 28.3972 22.9054 28.3972C23.4062 28.3972 23.8622 28.2658 24.2027 28.0515C24.5432 28.2658 24.9992 28.3972 25.5 28.3972C26.0008 28.3972 26.4568 28.2658 26.7973 28.0515C27.1378 28.2658 27.5938 28.3972 28.0946 28.3972C28.3376 28.3972 28.5699 28.366 28.7838 28.3097V29.0266C28.7838 29.435 28.2923 29.7671 27.6853 29.7671Z" fill="black"/>
<path d="M155.98 24.5908C154.606 25.5949 153.648 26.891 153.209 28.3391C153.144 28.5527 152.883 28.6984 152.593 28.6984C152.548 28.6984 152.502 28.6949 152.457 28.6877C152.116 28.6335 151.9 28.3898 151.975 28.1432C152.465 26.5257 153.54 25.075 155.082 23.9476C155.328 23.7682 155.728 23.7668 155.976 23.9443C156.224 24.122 156.226 24.4114 155.98 24.5908ZM152.391 29.0155C152.042 28.9964 151.739 29.1843 151.712 29.4359C151.685 29.6872 151.671 29.9441 151.671 30.1996C151.671 30.4521 151.954 30.6568 152.303 30.6568C152.652 30.6568 152.935 30.4521 152.935 30.1996C152.935 29.9677 152.947 29.7345 152.972 29.5066C152.999 29.2549 152.739 29.035 152.391 29.0155ZM158.148 49.3005C157.557 49.7516 156.758 50 155.899 50C155.039 50 154.24 49.7516 153.649 49.3005C153.057 48.8495 152.757 48.2592 152.802 47.6383L153.392 38.5836C153.405 38.3876 153.587 38.2254 153.833 38.1693C153.632 37.803 153.185 37.5213 152.624 37.4431L150.512 37.1487C150.215 37.1072 150 36.9189 150 36.6998V29.8701C150 28.1003 150.637 26.351 151.842 24.8109C153.047 23.2709 154.793 21.9757 156.89 21.0651C157.085 20.9804 157.329 20.9782 157.527 21.0593C157.725 21.1405 157.847 21.2924 157.847 21.4571V38.1514C158.151 38.1768 158.39 38.3577 158.405 38.5836L158.996 47.6407C159.041 48.2592 158.74 48.8495 158.148 49.3005ZM155.144 38.148H156.583V22.3081C153.277 24.0548 151.264 26.8816 151.264 29.8701V36.3224L152.863 36.5454C154.013 36.7057 154.897 37.348 155.144 38.148ZM157.734 47.6863L157.171 39.0623H154.626L154.064 47.6839C154.037 48.0543 154.215 48.404 154.566 48.6713C154.916 48.9386 155.389 49.0858 155.899 49.0858C156.408 49.0858 156.881 48.9386 157.232 48.6714C157.582 48.404 157.76 48.0542 157.734 47.6863Z" fill="black"/>
<path d="M46.733 28.3636V32.4545H34.6136V28.3636H46.733ZM37.3878 48V26.9446C37.3878 25.5213 37.6648 24.3409 38.2188 23.4034C38.7812 22.4659 39.5483 21.7628 40.5199 21.294C41.4915 20.8253 42.5952 20.5909 43.831 20.5909C44.6662 20.5909 45.429 20.6548 46.1193 20.7827C46.8182 20.9105 47.3381 21.0256 47.679 21.1278L46.7074 25.2188C46.4943 25.1506 46.2301 25.0866 45.9148 25.027C45.608 24.9673 45.2926 24.9375 44.9688 24.9375C44.1676 24.9375 43.6094 25.125 43.294 25.5C42.9787 25.8665 42.821 26.3821 42.821 27.0469V48H37.3878ZM58.229 48.3835C56.2433 48.3835 54.5259 47.9616 53.0771 47.1179C51.6367 46.2656 50.5245 45.081 49.7404 43.5639C48.9563 42.0384 48.5643 40.2699 48.5643 38.2585C48.5643 36.2301 48.9563 34.4574 49.7404 32.9403C50.5245 31.4148 51.6367 30.2301 53.0771 29.3864C54.5259 28.5341 56.2433 28.108 58.229 28.108C60.2148 28.108 61.9279 28.5341 63.3683 29.3864C64.8171 30.2301 65.9336 31.4148 66.7177 32.9403C67.5018 34.4574 67.8938 36.2301 67.8938 38.2585C67.8938 40.2699 67.5018 42.0384 66.7177 43.5639C65.9336 45.081 64.8171 46.2656 63.3683 47.1179C61.9279 47.9616 60.2148 48.3835 58.229 48.3835ZM58.2546 44.1648C59.158 44.1648 59.9123 43.9091 60.5174 43.3977C61.1225 42.8778 61.5785 42.1705 61.8853 41.2756C62.2006 40.3807 62.3583 39.3622 62.3583 38.2202C62.3583 37.0781 62.2006 36.0597 61.8853 35.1648C61.5785 34.2699 61.1225 33.5625 60.5174 33.0426C59.9123 32.5227 59.158 32.2628 58.2546 32.2628C57.3427 32.2628 56.5756 32.5227 55.9535 33.0426C55.3398 33.5625 54.8754 34.2699 54.56 35.1648C54.2532 36.0597 54.0998 37.0781 54.0998 38.2202C54.0998 39.3622 54.2532 40.3807 54.56 41.2756C54.8754 42.1705 55.3398 42.8778 55.9535 43.3977C56.5756 43.9091 57.3427 44.1648 58.2546 44.1648ZM80.3072 48.3835C78.3214 48.3835 76.604 47.9616 75.1552 47.1179C73.7148 46.2656 72.6026 45.081 71.8185 43.5639C71.0344 42.0384 70.6424 40.2699 70.6424 38.2585C70.6424 36.2301 71.0344 34.4574 71.8185 32.9403C72.6026 31.4148 73.7148 30.2301 75.1552 29.3864C76.604 28.5341 78.3214 28.108 80.3072 28.108C82.293 28.108 84.006 28.5341 85.4464 29.3864C86.8952 30.2301 88.0117 31.4148 88.7958 32.9403C89.5799 34.4574 89.9719 36.2301 89.9719 38.2585C89.9719 40.2699 89.5799 42.0384 88.7958 43.5639C88.0117 45.081 86.8952 46.2656 85.4464 47.1179C84.006 47.9616 82.293 48.3835 80.3072 48.3835ZM80.3327 44.1648C81.2362 44.1648 81.9904 43.9091 82.5955 43.3977C83.2006 42.8778 83.6566 42.1705 83.9634 41.2756C84.2788 40.3807 84.4364 39.3622 84.4364 38.2202C84.4364 37.0781 84.2788 36.0597 83.9634 35.1648C83.6566 34.2699 83.2006 33.5625 82.5955 33.0426C81.9904 32.5227 81.2362 32.2628 80.3327 32.2628C79.4208 32.2628 78.6538 32.5227 78.0316 33.0426C77.418 33.5625 76.9535 34.2699 76.6381 35.1648C76.3313 36.0597 76.1779 37.0781 76.1779 38.2202C76.1779 39.3622 76.3313 40.3807 76.6381 41.2756C76.9535 42.1705 77.418 42.8778 78.0316 43.3977C78.6538 43.9091 79.4208 44.1648 80.3327 44.1648ZM100.749 48.3196C99.2575 48.3196 97.9066 47.9361 96.6964 47.169C95.4947 46.3935 94.5401 45.2557 93.8327 43.7557C93.1339 42.2472 92.7844 40.3977 92.7844 38.2074C92.7844 35.9574 93.1467 34.0866 93.8711 32.5952C94.5955 31.0952 95.5586 29.9744 96.7603 29.233C97.9705 28.483 99.2958 28.108 100.736 28.108C101.836 28.108 102.752 28.2955 103.485 28.6705C104.226 29.0369 104.823 29.4972 105.275 30.0511C105.735 30.5966 106.084 31.1335 106.323 31.6619H106.489V21.8182H111.922V48H106.553V44.8551H106.323C106.067 45.4006 105.705 45.9418 105.236 46.4787C104.776 47.0071 104.175 47.446 103.434 47.7955C102.701 48.1449 101.806 48.3196 100.749 48.3196ZM102.475 43.9858C103.353 43.9858 104.094 43.7472 104.699 43.2699C105.313 42.7841 105.782 42.1065 106.105 41.2372C106.438 40.3679 106.604 39.3494 106.604 38.1818C106.604 37.0142 106.442 36 106.118 35.1392C105.794 34.2784 105.326 33.6136 104.712 33.1449C104.098 32.6761 103.353 32.4418 102.475 32.4418C101.58 32.4418 100.826 32.6847 100.212 33.1705C99.5984 33.6562 99.1339 34.3295 98.8185 35.1903C98.5032 36.0511 98.3455 37.0483 98.3455 38.1818C98.3455 39.3239 98.5032 40.3338 98.8185 41.2116C99.1424 42.081 99.6069 42.7628 100.212 43.2571C100.826 43.7429 101.58 43.9858 102.475 43.9858ZM116.4 48V28.3636H121.846V48H116.4ZM119.136 25.8324C118.326 25.8324 117.631 25.5639 117.052 25.027C116.481 24.4815 116.195 23.8295 116.195 23.071C116.195 22.321 116.481 21.6776 117.052 21.1406C117.631 20.5952 118.326 20.3224 119.136 20.3224C119.945 20.3224 120.636 20.5952 121.207 21.1406C121.786 21.6776 122.076 22.321 122.076 23.071C122.076 23.8295 121.786 24.4815 121.207 25.027C120.636 25.5639 119.945 25.8324 119.136 25.8324ZM135.157 48.3835C133.137 48.3835 131.399 47.9744 129.941 47.1562C128.493 46.3295 127.376 45.1619 126.592 43.6534C125.808 42.1364 125.416 40.3423 125.416 38.2713C125.416 36.2514 125.808 34.4787 126.592 32.9531C127.376 31.4276 128.48 30.2386 129.903 29.3864C131.335 28.5341 133.014 28.108 134.94 28.108C136.235 28.108 137.441 28.3168 138.558 28.7344C139.683 29.1435 140.663 29.7614 141.498 30.5881C142.342 31.4148 142.998 32.4545 143.467 33.7074C143.936 34.9517 144.17 36.4091 144.17 38.0795V39.5753H127.589V36.2003H139.044C139.044 35.4162 138.873 34.7216 138.532 34.1165C138.191 33.5114 137.718 33.0384 137.113 32.6974C136.517 32.348 135.822 32.1733 135.029 32.1733C134.203 32.1733 133.47 32.3651 132.831 32.7486C132.2 33.1236 131.706 33.6307 131.348 34.2699C130.99 34.9006 130.806 35.6037 130.798 36.3793V39.5881C130.798 40.5597 130.977 41.3991 131.335 42.1065C131.701 42.8139 132.217 43.3594 132.882 43.7429C133.547 44.1264 134.335 44.3182 135.247 44.3182C135.852 44.3182 136.406 44.233 136.909 44.0625C137.412 43.892 137.842 43.6364 138.2 43.2955C138.558 42.9545 138.831 42.5369 139.018 42.0426L144.055 42.375C143.799 43.5852 143.275 44.642 142.483 45.5455C141.699 46.4403 140.684 47.1392 139.44 47.642C138.204 48.1364 136.777 48.3835 135.157 48.3835Z" fill="black"/>
<path d="M46.2273 15.2727V3.27273H47.5227V4.65909H47.6818C47.7803 4.50758 47.9167 4.31439 48.0909 4.07955C48.2689 3.84091 48.5227 3.62879 48.8523 3.44318C49.1856 3.25379 49.6364 3.15909 50.2045 3.15909C50.9394 3.15909 51.5871 3.3428 52.1477 3.71023C52.7083 4.07765 53.1458 4.59848 53.4602 5.27273C53.7746 5.94697 53.9318 6.74242 53.9318 7.65909C53.9318 8.58333 53.7746 9.38447 53.4602 10.0625C53.1458 10.7367 52.7102 11.2595 52.1534 11.6307C51.5966 11.9981 50.9545 12.1818 50.2273 12.1818C49.6667 12.1818 49.2178 12.089 48.8807 11.9034C48.5436 11.714 48.2841 11.5 48.1023 11.2614C47.9205 11.0189 47.7803 10.8182 47.6818 10.6591H47.5682V15.2727H46.2273ZM47.5455 7.63636C47.5455 8.29545 47.642 8.87689 47.8352 9.38068C48.0284 9.88068 48.3106 10.2727 48.6818 10.5568C49.053 10.8371 49.5076 10.9773 50.0455 10.9773C50.6061 10.9773 51.0739 10.8295 51.4489 10.5341C51.8277 10.2348 52.1117 9.83333 52.3011 9.32955C52.4943 8.82197 52.5909 8.25758 52.5909 7.63636C52.5909 7.02273 52.4962 6.4697 52.3068 5.97727C52.1212 5.48106 51.839 5.08902 51.4602 4.80114C51.0852 4.50947 50.6136 4.36364 50.0455 4.36364C49.5 4.36364 49.0417 4.50189 48.6705 4.77841C48.2992 5.05114 48.0189 5.43371 47.8295 5.92614C47.6402 6.41477 47.5455 6.98485 47.5455 7.63636ZM59.5227 12.1818C58.7348 12.1818 58.0436 11.9943 57.4489 11.6193C56.858 11.2443 56.3958 10.7197 56.0625 10.0455C55.733 9.37121 55.5682 8.58333 55.5682 7.68182C55.5682 6.77273 55.733 5.97917 56.0625 5.30114C56.3958 4.62311 56.858 4.09659 57.4489 3.72159C58.0436 3.34659 58.7348 3.15909 59.5227 3.15909C60.3106 3.15909 61 3.34659 61.5909 3.72159C62.1856 4.09659 62.6477 4.62311 62.9773 5.30114C63.3106 5.97917 63.4773 6.77273 63.4773 7.68182C63.4773 8.58333 63.3106 9.37121 62.9773 10.0455C62.6477 10.7197 62.1856 11.2443 61.5909 11.6193C61 11.9943 60.3106 12.1818 59.5227 12.1818ZM59.5227 10.9773C60.1212 10.9773 60.6136 10.8239 61 10.517C61.3864 10.2102 61.6723 9.80682 61.858 9.30682C62.0436 8.80682 62.1364 8.26515 62.1364 7.68182C62.1364 7.09848 62.0436 6.55492 61.858 6.05114C61.6723 5.54735 61.3864 5.14015 61 4.82955C60.6136 4.51894 60.1212 4.36364 59.5227 4.36364C58.9242 4.36364 58.4318 4.51894 58.0455 4.82955C57.6591 5.14015 57.3731 5.54735 57.1875 6.05114C57.0019 6.55492 56.9091 7.09848 56.9091 7.68182C56.9091 8.26515 57.0019 8.80682 57.1875 9.30682C57.3731 9.80682 57.6591 10.2102 58.0455 10.517C58.4318 10.8239 58.9242 10.9773 59.5227 10.9773ZM67.2045 12L64.5455 3.27273H65.9545L67.8409 9.95455H67.9318L69.7955 3.27273H71.2273L73.0682 9.93182H73.1591L75.0455 3.27273H76.4545L73.7955 12H72.4773L70.5682 5.29545H70.4318L68.5227 12H67.2045ZM81.5895 12.1818C80.7486 12.1818 80.0232 11.9962 79.4134 11.625C78.8073 11.25 78.3395 10.7273 78.0099 10.0568C77.6842 9.38258 77.5213 8.59848 77.5213 7.70455C77.5213 6.81061 77.6842 6.02273 78.0099 5.34091C78.3395 4.6553 78.7978 4.12121 79.3849 3.73864C79.9759 3.35227 80.6652 3.15909 81.4531 3.15909C81.9077 3.15909 82.3565 3.23485 82.7997 3.38636C83.2429 3.53788 83.6463 3.78409 84.0099 4.125C84.3736 4.46212 84.6634 4.90909 84.8793 5.46591C85.0952 6.02273 85.2031 6.70833 85.2031 7.52273V8.09091H78.4759V6.93182H83.8395C83.8395 6.43939 83.741 6 83.544 5.61364C83.3509 5.22727 83.0743 4.92235 82.7145 4.69886C82.3584 4.47538 81.938 4.36364 81.4531 4.36364C80.919 4.36364 80.4569 4.49621 80.0668 4.76136C79.6804 5.02273 79.383 5.36364 79.1747 5.78409C78.9664 6.20455 78.8622 6.6553 78.8622 7.13636V7.90909C78.8622 8.56818 78.9759 9.12689 79.2031 9.58523C79.4342 10.0398 79.7543 10.3864 80.1634 10.625C80.5724 10.8598 81.0478 10.9773 81.5895 10.9773C81.9418 10.9773 82.2599 10.928 82.544 10.8295C82.8319 10.7273 83.08 10.5758 83.2884 10.375C83.4967 10.1705 83.6577 9.91667 83.7713 9.61364L85.0668 9.97727C84.9304 10.4167 84.7012 10.803 84.3793 11.1364C84.0573 11.4659 83.6596 11.7235 83.1861 11.9091C82.7126 12.0909 82.1804 12.1818 81.5895 12.1818ZM87.2429 12V3.27273H88.5384V4.59091H88.6293C88.7884 4.15909 89.0762 3.80871 89.4929 3.53977C89.9096 3.27083 90.3793 3.13636 90.902 3.13636C91.0005 3.13636 91.1236 3.13826 91.2713 3.14205C91.419 3.14583 91.5308 3.15152 91.6065 3.15909V4.52273C91.5611 4.51136 91.4569 4.49432 91.294 4.47159C91.1349 4.44508 90.9664 4.43182 90.7884 4.43182C90.3641 4.43182 89.9853 4.52083 89.652 4.69886C89.3224 4.87311 89.0611 5.11553 88.8679 5.42614C88.6785 5.73295 88.5838 6.08333 88.5838 6.47727V12H87.2429ZM96.5895 12.1818C95.7486 12.1818 95.0232 11.9962 94.4134 11.625C93.8073 11.25 93.3395 10.7273 93.0099 10.0568C92.6842 9.38258 92.5213 8.59848 92.5213 7.70455C92.5213 6.81061 92.6842 6.02273 93.0099 5.34091C93.3395 4.6553 93.7978 4.12121 94.3849 3.73864C94.9759 3.35227 95.6652 3.15909 96.4531 3.15909C96.9077 3.15909 97.3565 3.23485 97.7997 3.38636C98.2429 3.53788 98.6463 3.78409 99.0099 4.125C99.3736 4.46212 99.6634 4.90909 99.8793 5.46591C100.095 6.02273 100.203 6.70833 100.203 7.52273V8.09091H93.4759V6.93182H98.8395C98.8395 6.43939 98.741 6 98.544 5.61364C98.3509 5.22727 98.0743 4.92235 97.7145 4.69886C97.3584 4.47538 96.938 4.36364 96.4531 4.36364C95.919 4.36364 95.4569 4.49621 95.0668 4.76136C94.6804 5.02273 94.383 5.36364 94.1747 5.78409C93.9664 6.20455 93.8622 6.6553 93.8622 7.13636V7.90909C93.8622 8.56818 93.9759 9.12689 94.2031 9.58523C94.4342 10.0398 94.7543 10.3864 95.1634 10.625C95.5724 10.8598 96.0478 10.9773 96.5895 10.9773C96.9418 10.9773 97.2599 10.928 97.544 10.8295C97.8319 10.7273 98.08 10.5758 98.2884 10.375C98.4967 10.1705 98.6577 9.91667 98.7713 9.61364L100.067 9.97727C99.9304 10.4167 99.7012 10.803 99.3793 11.1364C99.0573 11.4659 98.6596 11.7235 98.1861 11.9091C97.7126 12.0909 97.1804 12.1818 96.5895 12.1818ZM105.538 12.1818C104.811 12.1818 104.169 11.9981 103.612 11.6307C103.055 11.2595 102.62 10.7367 102.305 10.0625C101.991 9.38447 101.834 8.58333 101.834 7.65909C101.834 6.74242 101.991 5.94697 102.305 5.27273C102.62 4.59848 103.057 4.07765 103.618 3.71023C104.179 3.3428 104.826 3.15909 105.561 3.15909C106.129 3.15909 106.578 3.25379 106.908 3.44318C107.241 3.62879 107.495 3.84091 107.669 4.07955C107.847 4.31439 107.985 4.50758 108.084 4.65909H108.197V0.363636H109.538V12H108.243V10.6591H108.084C107.985 10.8182 107.845 11.0189 107.663 11.2614C107.482 11.5 107.222 11.714 106.885 11.9034C106.548 12.089 106.099 12.1818 105.538 12.1818ZM105.72 10.9773C106.258 10.9773 106.713 10.8371 107.084 10.5568C107.455 10.2727 107.737 9.88068 107.93 9.38068C108.124 8.87689 108.22 8.29545 108.22 7.63636C108.22 6.98485 108.125 6.41477 107.936 5.92614C107.747 5.43371 107.466 5.05114 107.095 4.77841C106.724 4.50189 106.266 4.36364 105.72 4.36364C105.152 4.36364 104.679 4.50947 104.3 4.80114C103.925 5.08902 103.643 5.48106 103.453 5.97727C103.268 6.4697 103.175 7.02273 103.175 7.63636C103.175 8.25758 103.269 8.82197 103.459 9.32955C103.652 9.83333 103.936 10.2348 104.311 10.5341C104.69 10.8295 105.16 10.9773 105.72 10.9773ZM116.862 12V0.363636H118.203V4.65909H118.317C118.415 4.50758 118.552 4.31439 118.726 4.07955C118.904 3.84091 119.158 3.62879 119.487 3.44318C119.821 3.25379 120.271 3.15909 120.839 3.15909C121.574 3.15909 122.222 3.3428 122.783 3.71023C123.343 4.07765 123.781 4.59848 124.095 5.27273C124.41 5.94697 124.567 6.74242 124.567 7.65909C124.567 8.58333 124.41 9.38447 124.095 10.0625C123.781 10.7367 123.345 11.2595 122.788 11.6307C122.232 11.9981 121.589 12.1818 120.862 12.1818C120.302 12.1818 119.853 12.089 119.516 11.9034C119.179 11.714 118.919 11.5 118.737 11.2614C118.555 11.0189 118.415 10.8182 118.317 10.6591H118.158V12H116.862ZM118.18 7.63636C118.18 8.29545 118.277 8.87689 118.47 9.38068C118.663 9.88068 118.946 10.2727 119.317 10.5568C119.688 10.8371 120.143 10.9773 120.68 10.9773C121.241 10.9773 121.709 10.8295 122.084 10.5341C122.463 10.2348 122.747 9.83333 122.936 9.32955C123.129 8.82197 123.226 8.25758 123.226 7.63636C123.226 7.02273 123.131 6.4697 122.942 5.97727C122.756 5.48106 122.474 5.08902 122.095 4.80114C121.72 4.50947 121.249 4.36364 120.68 4.36364C120.135 4.36364 119.677 4.50189 119.305 4.77841C118.934 5.05114 118.654 5.43371 118.464 5.92614C118.275 6.41477 118.18 6.98485 118.18 7.63636ZM127.169 15.2727C126.942 15.2727 126.739 15.2538 126.561 15.2159C126.383 15.1818 126.26 15.1477 126.192 15.1136L126.533 13.9318C126.858 14.0152 127.146 14.0455 127.396 14.0227C127.646 14 127.868 13.8883 128.061 13.6875C128.258 13.4905 128.438 13.1705 128.601 12.7273L128.851 12.0455L125.624 3.27273H127.078L129.487 10.2273H129.578L131.987 3.27273H133.442L129.737 13.2727C129.571 13.7235 129.364 14.0966 129.118 14.392C128.872 14.6913 128.586 14.9129 128.26 15.0568C127.938 15.2008 127.574 15.2727 127.169 15.2727Z" fill="black"/>
</svg>
