<svg width="179" height="58" viewBox="0 0 179 58" fill="none" xmlns="http://www.w3.org/2000/svg">
<path d="M8.39189 9C8.05605 9 7.78378 9.25629 7.78378 9.57241V17.5098C7.78378 17.8675 7.47462 18.1585 7.09459 18.1585C6.71457 18.1585 6.40541 17.8675 6.40541 17.5098V9.57241C6.40541 9.25629 6.13313 9 5.7973 9C5.46146 9 5.18919 9.25629 5.18919 9.57241V17.5098C5.18919 17.8675 4.88003 18.1585 4.5 18.1585C4.11997 18.1585 3.81081 17.8675 3.81081 17.5098V9.57241C3.81081 9.25629 3.53854 9 3.2027 9C2.86686 9 2.59459 9.25629 2.59459 9.57241V17.5098C2.59459 17.8675 2.28543 18.1585 1.90541 18.1585C1.52538 18.1585 1.21622 17.8675 1.21622 17.5098V9.57241C1.21622 9.25629 0.943946 9 0.608108 9C0.27227 9 0 9.25629 0 9.57241V20.1799C0 21.3799 1.03719 22.3562 2.3147 22.3562C2.50411 22.3562 2.6807 22.427 2.81189 22.5556C2.94308 22.6842 3.01111 22.8532 3.00332 23.0313L2.02581 45.5741C1.99808 46.2142 2.2423 46.8211 2.71362 47.2833C3.18495 47.7455 3.81941 48 4.5 48C5.18059 48 5.81497 47.7455 6.2863 47.2833C6.75762 46.8212 7.00184 46.2142 6.97411 45.5741L5.99659 23.0314C5.98889 22.8532 6.05692 22.6843 6.18803 22.5557C6.31922 22.4271 6.49573 22.3562 6.68789 22.3562C7.96281 22.3562 9 21.3799 9 20.1799V9.57241C9 9.25629 8.72773 9 8.39189 9ZM5.409 46.4905C5.16916 46.7257 4.84638 46.8552 4.5 46.8552C4.1537 46.8552 3.83092 46.7257 3.59108 46.4905C3.35124 46.2554 3.22695 45.9465 3.24113 45.6208L3.87916 30.9041H5.12084L5.75895 45.6208C5.77314 45.9465 5.64876 46.2554 5.409 46.4905ZM6.6853 21.2114C6.16159 21.2114 5.67349 21.4072 5.31073 21.7628C4.94805 22.1183 4.76011 22.5854 4.78143 23.078L5.07122 29.7593H3.92886L4.21857 23.078C4.23989 22.5854 4.05195 22.1183 3.68927 21.7628C3.3266 21.4072 2.83841 21.2114 2.31203 21.2114C1.70781 21.2114 1.21622 20.7486 1.21622 20.1799V19.1814C1.43011 19.2597 1.66241 19.3032 1.90541 19.3032C2.40624 19.3032 2.86224 19.1202 3.2027 18.8217C3.54316 19.1202 3.99916 19.3032 4.5 19.3032C5.00084 19.3032 5.45684 19.1202 5.7973 18.8217C6.13776 19.1202 6.59376 19.3032 7.09459 19.3032C7.33759 19.3032 7.56989 19.2597 7.78378 19.1814V20.1799C7.78378 20.7487 7.29227 21.2114 6.6853 21.2114Z" fill="black"/>
<path d="M31.9773 19.8182V25.2727H15.8182V19.8182H31.9773ZM19.517 46V17.9261C19.517 16.0284 19.8864 14.4545 20.625 13.2045C21.375 11.9545 22.3977 11.017 23.6932 10.392C24.9886 9.76704 26.4602 9.45454 28.108 9.45454C29.2216 9.45454 30.2386 9.53977 31.1591 9.71023C32.0909 9.88068 32.7841 10.0341 33.2386 10.1705L31.9432 15.625C31.6591 15.5341 31.3068 15.4489 30.8864 15.3693C30.4773 15.2898 30.0568 15.25 29.625 15.25C28.5568 15.25 27.8125 15.5 27.392 16C26.9716 16.4886 26.7614 17.1761 26.7614 18.0625V46H19.517ZM47.3054 46.5114C44.6577 46.5114 42.3679 45.9489 40.4361 44.8239C38.5156 43.6875 37.0327 42.108 35.9872 40.0852C34.9418 38.0511 34.419 35.6932 34.419 33.0114C34.419 30.3068 34.9418 27.9432 35.9872 25.9205C37.0327 23.8864 38.5156 22.3068 40.4361 21.1818C42.3679 20.0455 44.6577 19.4773 47.3054 19.4773C49.9531 19.4773 52.2372 20.0455 54.1577 21.1818C56.0895 22.3068 57.5781 23.8864 58.6236 25.9205C59.669 27.9432 60.1918 30.3068 60.1918 33.0114C60.1918 35.6932 59.669 38.0511 58.6236 40.0852C57.5781 42.108 56.0895 43.6875 54.1577 44.8239C52.2372 45.9489 49.9531 46.5114 47.3054 46.5114ZM47.3395 40.8864C48.544 40.8864 49.5497 40.5455 50.3565 39.8636C51.1634 39.1705 51.7713 38.2273 52.1804 37.0341C52.6009 35.8409 52.8111 34.483 52.8111 32.9602C52.8111 31.4375 52.6009 30.0795 52.1804 28.8864C51.7713 27.6932 51.1634 26.75 50.3565 26.0568C49.5497 25.3636 48.544 25.017 47.3395 25.017C46.1236 25.017 45.1009 25.3636 44.2713 26.0568C43.4531 26.75 42.8338 27.6932 42.4134 28.8864C42.0043 30.0795 41.7997 31.4375 41.7997 32.9602C41.7997 34.483 42.0043 35.8409 42.4134 37.0341C42.8338 38.2273 43.4531 39.1705 44.2713 39.8636C45.1009 40.5455 46.1236 40.8864 47.3395 40.8864ZM76.7429 46.5114C74.0952 46.5114 71.8054 45.9489 69.8736 44.8239C67.9531 43.6875 66.4702 42.108 65.4247 40.0852C64.3793 38.0511 63.8565 35.6932 63.8565 33.0114C63.8565 30.3068 64.3793 27.9432 65.4247 25.9205C66.4702 23.8864 67.9531 22.3068 69.8736 21.1818C71.8054 20.0455 74.0952 19.4773 76.7429 19.4773C79.3906 19.4773 81.6747 20.0455 83.5952 21.1818C85.527 22.3068 87.0156 23.8864 88.0611 25.9205C89.1065 27.9432 89.6293 30.3068 89.6293 33.0114C89.6293 35.6932 89.1065 38.0511 88.0611 40.0852C87.0156 42.108 85.527 43.6875 83.5952 44.8239C81.6747 45.9489 79.3906 46.5114 76.7429 46.5114ZM76.777 40.8864C77.9815 40.8864 78.9872 40.5455 79.794 39.8636C80.6009 39.1705 81.2088 38.2273 81.6179 37.0341C82.0384 35.8409 82.2486 34.483 82.2486 32.9602C82.2486 31.4375 82.0384 30.0795 81.6179 28.8864C81.2088 27.6932 80.6009 26.75 79.794 26.0568C78.9872 25.3636 77.9815 25.017 76.777 25.017C75.5611 25.017 74.5384 25.3636 73.7088 26.0568C72.8906 26.75 72.2713 27.6932 71.8509 28.8864C71.4418 30.0795 71.2372 31.4375 71.2372 32.9602C71.2372 34.483 71.4418 35.8409 71.8509 37.0341C72.2713 38.2273 72.8906 39.1705 73.7088 39.8636C74.5384 40.5455 75.5611 40.8864 76.777 40.8864ZM103.999 46.4261C102.01 46.4261 100.209 45.9148 98.5952 44.892C96.9929 43.858 95.7202 42.3409 94.777 40.3409C93.8452 38.3295 93.3793 35.8636 93.3793 32.9432C93.3793 29.9432 93.8622 27.4489 94.8281 25.4602C95.794 23.4602 97.0781 21.9659 98.6804 20.9773C100.294 19.9773 102.061 19.4773 103.982 19.4773C105.447 19.4773 106.669 19.7273 107.646 20.2273C108.635 20.7159 109.43 21.3295 110.033 22.0682C110.646 22.7955 111.112 23.5114 111.43 24.2159H111.652V11.0909H118.896V46H111.737V41.8068H111.43C111.089 42.5341 110.607 43.2557 109.982 43.9716C109.368 44.6761 108.567 45.2614 107.578 45.7273C106.601 46.1932 105.408 46.4261 103.999 46.4261ZM106.3 40.6477C107.47 40.6477 108.459 40.3295 109.266 39.6932C110.084 39.0455 110.709 38.142 111.141 36.983C111.584 35.8239 111.805 34.4659 111.805 32.9091C111.805 31.3523 111.589 30 111.158 28.8523C110.726 27.7045 110.101 26.8182 109.283 26.1932C108.464 25.5682 107.47 25.2557 106.3 25.2557C105.107 25.2557 104.101 25.5795 103.283 26.2273C102.464 26.875 101.845 27.7727 101.425 28.9205C101.004 30.0682 100.794 31.3977 100.794 32.9091C100.794 34.4318 101.004 35.7784 101.425 36.9489C101.857 38.108 102.476 39.017 103.283 39.6761C104.101 40.3239 105.107 40.6477 106.3 40.6477ZM124.866 46V19.8182H132.128V46H124.866ZM128.514 16.4432C127.435 16.4432 126.509 16.0852 125.736 15.3693C124.974 14.642 124.594 13.7727 124.594 12.7614C124.594 11.7614 124.974 10.9034 125.736 10.1875C126.509 9.46023 127.435 9.09659 128.514 9.09659C129.594 9.09659 130.514 9.46023 131.276 10.1875C132.048 10.9034 132.435 11.7614 132.435 12.7614C132.435 13.7727 132.048 14.642 131.276 15.3693C130.514 16.0852 129.594 16.4432 128.514 16.4432ZM149.876 46.5114C147.183 46.5114 144.865 45.9659 142.922 44.875C140.99 43.7727 139.501 42.2159 138.456 40.2045C137.411 38.1818 136.888 35.7898 136.888 33.0284C136.888 30.3352 137.411 27.9716 138.456 25.9375C139.501 23.9034 140.973 22.3182 142.871 21.1818C144.78 20.0455 147.018 19.4773 149.587 19.4773C151.314 19.4773 152.922 19.7557 154.411 20.3125C155.911 20.858 157.217 21.6818 158.331 22.7841C159.456 23.8864 160.331 25.2727 160.956 26.9432C161.581 28.6023 161.893 30.5455 161.893 32.7727V34.767H139.786V30.267H155.058C155.058 29.2216 154.831 28.2955 154.376 27.4886C153.922 26.6818 153.291 26.0511 152.484 25.5966C151.689 25.1307 150.763 24.8977 149.706 24.8977C148.604 24.8977 147.626 25.1534 146.774 25.6648C145.933 26.1648 145.274 26.8409 144.797 27.6932C144.32 28.5341 144.075 29.4716 144.064 30.5057V34.7841C144.064 36.0795 144.303 37.1989 144.78 38.142C145.268 39.0852 145.956 39.8125 146.842 40.3239C147.729 40.8352 148.78 41.0909 149.996 41.0909C150.803 41.0909 151.541 40.9773 152.212 40.75C152.882 40.5227 153.456 40.1818 153.933 39.7273C154.411 39.2727 154.774 38.7159 155.024 38.0568L161.74 38.5C161.399 40.1136 160.7 41.5227 159.643 42.7273C158.598 43.9205 157.246 44.8523 155.587 45.5227C153.939 46.1818 152.036 46.5114 149.876 46.5114Z" fill="black"/>
<path d="M175.968 12.9529C174.597 14.3379 173.641 16.1256 173.203 18.123C173.138 18.4176 172.877 18.6185 172.587 18.6185C172.543 18.6185 172.497 18.6137 172.452 18.6037C172.111 18.529 171.896 18.1928 171.971 17.8527C172.46 15.6217 173.533 13.6207 175.072 12.0657C175.317 11.8182 175.716 11.8163 175.964 12.0612C176.211 12.3062 176.213 12.7054 175.968 12.9529ZM172.386 19.0559C172.038 19.0295 171.735 19.2887 171.709 19.6358C171.682 19.9824 171.668 20.3368 171.668 20.6892C171.668 21.0374 171.95 21.3197 172.299 21.3197C172.647 21.3197 172.929 21.0374 172.929 20.6892C172.929 20.3692 172.941 20.0476 172.966 19.7332C172.993 19.386 172.733 19.0827 172.386 19.0559ZM178.132 47.0352C177.541 47.6573 176.744 48 175.887 48C175.029 48 174.232 47.6573 173.641 47.0352C173.051 46.4131 172.751 45.5989 172.796 44.7425L173.385 32.2532C173.398 31.9828 173.58 31.7592 173.826 31.6818C173.625 31.1765 173.178 30.788 172.619 30.6801L170.511 30.2741C170.214 30.2168 170 29.9571 170 29.6549V20.2346C170 17.7936 170.636 15.3807 171.838 13.2565C173.041 11.1323 174.783 9.34576 176.876 8.08986C177.071 7.973 177.314 7.96997 177.511 8.08187C177.709 8.19376 177.831 8.40335 177.831 8.6305V31.6571C178.134 31.6921 178.373 31.9416 178.388 32.2532L178.977 44.7459C179.022 45.5989 178.722 46.4131 178.132 47.0352ZM175.134 31.6524H176.57V9.80436C173.27 12.2136 171.261 16.1126 171.261 20.2346V29.1343L172.857 29.4419C174.005 29.663 174.887 30.549 175.134 31.6524ZM177.718 44.8087L177.157 32.9135H174.617L174.056 44.8054C174.029 45.3163 174.207 45.7986 174.556 46.1673C174.906 46.5359 175.379 46.739 175.887 46.739C176.395 46.739 176.867 46.5359 177.217 46.1674C177.567 45.7986 177.745 45.3162 177.718 44.8087Z" fill="black"/>
</svg>
