<?xml version="1.0" encoding="iso-8859-1"?>
<!-- Generator: Adobe Illustrator 19.0.0, SVG Export Plug-In . SVG Version: 6.00 Build 0)  -->
<svg version="1.1" id="Layer_1" xmlns="http://www.w3.org/2000/svg" xmlns:xlink="http://www.w3.org/1999/xlink" x="0px" y="0px"
	 viewBox="0 0 288.643 288.643" style="enable-background:new 0 0 288.643 288.643;" xml:space="preserve">
<g>
	<circle style="fill:#FFFFFF;" cx="144.321" cy="144.322" r="136.821"/>
	<g>
		<path style="fill:#414042;" d="M144.321,0.001C64.742,0.001,0,64.743,0,144.322s64.742,144.321,144.321,144.321
			S288.643,223.9,288.643,144.322S223.9,0.001,144.321,0.001z M144.321,273.643C73.014,273.643,15,215.63,15,144.322
			S73.014,15.001,144.321,15.001s129.321,58.013,129.321,129.321S215.629,273.643,144.321,273.643z"/>
		<path style="fill:#414042;" d="M144.321,47.206c-53.551,0-97.117,43.566-97.117,97.117s43.566,97.117,97.117,97.117
			c23.824,0,46.739-8.712,64.523-24.533c3.096-2.753,3.372-7.494,0.619-10.588c-2.752-3.094-7.492-3.373-10.588-0.619
			c-15.035,13.374-34.41,20.74-54.555,20.74c-45.279,0-82.117-36.837-82.117-82.117c0-45.279,36.838-82.117,82.117-82.117
			s82.117,36.837,82.117,82.117c0,11.936-2.502,23.442-7.437,34.197c-1.727,3.765-0.075,8.217,3.69,9.944
			c3.765,1.729,8.218,0.075,9.944-3.69c5.84-12.732,8.802-26.342,8.802-40.452C241.439,90.772,197.872,47.206,144.321,47.206z"/>
	</g>
</g>
<g>
</g>
<g>
</g>
<g>
</g>
<g>
</g>
<g>
</g>
<g>
</g>
<g>
</g>
<g>
</g>
<g>
</g>
<g>
</g>
<g>
</g>
<g>
</g>
<g>
</g>
<g>
</g>
<g>
</g>
</svg>
