<svg width="145.929px" height="145.929px" viewBox="-26.31 0 145.929 145.929" xmlns="http://www.w3.org/2000/svg">
  <path id="utensils" d="M963.982,196.314h-3.923V172.27a21.2,21.2,0,0,0,17.2-20.816c0-.427-.022-.812-.047-1.144a7.257,7.257,0,0,0,.046-.792V123.511a8.309,8.309,0,0,0-14.757-5.243,8.308,8.308,0,0,0-12.895,0,8.309,8.309,0,0,0-14.757,5.242v26.007a7.571,7.571,0,0,0,.046.787c-.025.329-.046.715-.046,1.149a21.2,21.2,0,0,0,17.205,20.815v24.045h-3.922a7.622,7.622,0,0,0-7.623,7.607l0,42.147a14.186,14.186,0,0,0,14.164,14.159h2.767A14.181,14.181,0,0,0,971.6,246.068V203.921A7.621,7.621,0,0,0,963.982,196.314Zm-17.1-46.378c1.287.191,2.763.432,4.379.628l4.485-27.053a.309.309,0,0,1,.311-.311.314.314,0,0,1,.309.311l4.486,27.053c1.615-.2,3.089-.437,4.377-.628l3.411-26.425a.31.31,0,1,1,.621,0v25.931c0,.023-.009.06-.018.107l-.084.509.049.52c.033.366.053.61.053.876a13.2,13.2,0,1,1-26.409,0c0-.264.019-.516.053-.9l.043-.49-.075-.483c-.011-.06-.017-.1-.021-.131V123.511a.31.31,0,1,1,.62,0ZM963.6,246.068a6.213,6.213,0,0,1-6.159,6.158l-2.767,0a6.221,6.221,0,0,1-6.163-6.16V204.313H963.6Zm-39.05-123.2a6.941,6.941,0,0,0-1.441-4.184,10.4,10.4,0,0,0-4.842-3.362A18.457,18.457,0,0,0,912,114.3a28.53,28.53,0,0,0-26.2,19.585,45.266,45.266,0,0,0-1.846,14.075c0,1.819.045,3.465.045,4.833l-.045,54.65,4,0h-4a7.628,7.628,0,0,0,7.621,7.621h1.887v31a14.188,14.188,0,0,0,14.162,14.159h2.768a14.188,14.188,0,0,0,14.16-14.159v-39h0Zm-8,123.2a6.218,6.218,0,0,1-6.16,6.158l-2.768,0a6.222,6.222,0,0,1-6.162-6.16v-31h15.09Zm0-39h-24.6L892,152.793c0-1.533-.046-3.151-.046-4.835a37.588,37.588,0,0,1,1.455-11.607A20.549,20.549,0,0,1,912,122.3a9.216,9.216,0,0,1,4.23.852,2.464,2.464,0,0,1,.325.205Z" transform="translate(-883.955 -114.298)"/>
</svg>
